<svg xmlns="http://www.w3.org/2000/svg" viewBox="0 0 24.96 25.01"><defs><style>.cls-1{fill:#00b680;}</style></defs><g id="Ebene_2" data-name="Ebene 2"><g id="Layer_1" data-name="Layer 1"><path class="cls-1" d="M.77,7.2a2.49,2.49,0,1,0,3.53.09A2.49,2.49,0,0,0,.77,7.2Z"/><path class="cls-1" d="M17.78.77A2.49,2.49,0,1,0,17.7,4.3,2.48,2.48,0,0,0,17.78.77Z"/><path class="cls-1" d="M24.19,17.91a2.5,2.5,0,1,0-3.53-.09,2.5,2.5,0,0,0,3.53.09Z"/><path class="cls-1" d="M7.07,24.25a2.5,2.5,0,1,0,.09-3.54A2.51,2.51,0,0,0,7.07,24.25Z"/><path class="cls-1" d="M1.73,16.56A2.42,2.42,0,0,0,1,18.37v0a2.38,2.38,0,0,0,4.05,1.55l2.35-2.4a2.63,2.63,0,0,1,3.39,0l5.62,5.69A2.38,2.38,0,0,0,19.86,20l0,0-2.37-2.31a2.6,2.6,0,0,1,0-3.36l5.69-5.7a2.38,2.38,0,0,0,.7-1.65v0a2.39,2.39,0,0,0-2.35-2.41,2.42,2.42,0,0,0-1.71.7L17.43,7.53a2.61,2.61,0,0,1-3.4,0L8.44,1.87a2.35,2.35,0,0,0-1.75-.7h0a2.38,2.38,0,0,0-2.3,2.45,2.34,2.34,0,0,0,.69,1.61L7.34,7.51a2.49,2.49,0,0,1,0,3.36Zm8.89-5.88a2.64,2.64,0,1,1-.33.32A2.5,2.5,0,0,1,10.62,10.68Z"/></g></g></svg>